<?xml version="1.0" encoding="utf-8"?>
<!-- Generator: Adobe Illustrator 26.1.0, SVG Export Plug-In . SVG Version: 6.00 Build 0)  -->
<svg version="1.1" id="Layer_1" xmlns="http://www.w3.org/2000/svg" xmlns:xlink="http://www.w3.org/1999/xlink" x="0px" y="0px"
	 viewBox="0 0 841.9 595.3" style="enable-background:new 0 0 841.9 595.3;" xml:space="preserve">
<style type="text/css">
	.st0{fill:#FFE710;}
</style>
<polygon class="st0" points="288.2,199.1 212.3,199.1 212.3,236.9 174.4,236.9 174.4,396.2 250.4,396.2 250.4,358.3 288.2,358.3 "/>
<g>
	<polygon points="246.5,218 246.5,311.9 212.3,218 193.4,218 193.4,377.3 216.2,377.3 216.2,283.2 250.5,377.3 269.3,377.3 
		269.3,218 	"/>
	<path d="M338.8,380.7c-11.8,0-21.1-3.6-28.2-10.8c-7-7.2-10.6-16.7-10.6-28.5v-87.5c0-11.8,3.5-21.3,10.6-28.5
		c7-7.2,16.4-10.8,28.2-10.8c11.8,0,21.2,3.6,28.2,10.8c7,7.2,10.5,16.7,10.5,28.5v87.5c0,11.8-3.5,21.2-10.5,28.5
		C360.1,377.1,350.7,380.7,338.8,380.7z M338.8,356.3c4.5,0,8-1.4,10.5-4.1c2.5-2.7,3.8-6.3,3.8-10.8v-87.5c0-4.5-1.3-8.1-3.8-10.8
		c-2.5-2.7-6.1-4.1-10.5-4.1s-8,1.4-10.5,4.1c-2.5,2.7-3.8,6.3-3.8,10.8v87.5c0,4.5,1.3,8.1,3.8,10.8
		C330.9,354.9,334.4,356.3,338.8,356.3z"/>
	<path d="M396.8,378.7v-24.4H410c4.5,0,8-1.4,10.5-4.1c2.5-2.7,3.8-6.3,3.8-10.8V218h24.4v121.4c0,11.8-3.5,21.2-10.5,28.5
		c-7,7.2-16.4,10.8-28.2,10.8H396.8z"/>
	<path d="M582.5,377.3V218h65.3v24.4h-40.9v51.4h35.1v24.4h-35.1v59H582.5z"/>
	<g>
		<path d="M515.2,261.3"/>
		<polygon points="528.4,218 502,218 470.4,377.3 495.5,377.3 500.2,350.1 504.1,325.7 515.2,261.3 515.2,261.3 526,325.7 
			529.9,350.1 534.5,377.3 559.6,377.3 		"/>
	</g>
</g>
</svg>
