<?xml version="1.0" encoding="utf-8"?>
<!-- Generator: Adobe Illustrator 26.2.1, SVG Export Plug-In . SVG Version: 6.00 Build 0)  -->
<svg version="1.1" id="Layer_1" xmlns="http://www.w3.org/2000/svg" xmlns:xlink="http://www.w3.org/1999/xlink" x="0px" y="0px"
	 viewBox="0 0 1080 1080" style="enable-background:new 0 0 1080 1080;" xml:space="preserve">
<style type="text/css">
	.st0{fill:#30B9DB;}
	.st1{fill:#378BBA;}
</style>
<g>
	<g>
		<path class="st0" d="M517.4,744.6l-29.2,305.2c-1.6,16.8,15.5,29.1,30.9,22.2l78.5-35.3c22.1-9.9,36.3-31.8,36.3-56v-16.4
			c0-22.9,15.8-42.8,38.1-48.1l158.9-37.5c35.5-6.8,42.8-35.2,50.4-56.8l15.1-57.2l-262.5,53.2v-25.1c0-17.4,12.4-32.4,29.5-35.7
			l247.6-47.5l33.5-126.9L613.1,641C561.5,650.1,522.4,692.4,517.4,744.6z"/>
	</g>
	<path class="st0" d="M414.3,817.9v-24c0-17.4-12.3-32.4-29.4-35.8l-247.6-48.6l9.3,35.2c3.2,12.2,13.1,21.5,25.4,24L414.3,817.9z"
		/>
	<path class="st1" d="M-0.3,447.3l532.5,82.1V6.1L911,120c12.8,3.9,20.6,16.8,18,30l-63.3,316.5c-1.6,8,5.2,15.2,13.3,14l201-29.2
		v53.4l-538.9,86.1L-0.3,504.7V447.3z"/>
</g>
</svg>
