<?xml version="1.0" encoding="utf-8"?>
<!-- Generator: Adobe Illustrator 26.3.1, SVG Export Plug-In . SVG Version: 6.00 Build 0)  -->
<svg version="1.1" id="Layer_1" xmlns="http://www.w3.org/2000/svg" xmlns:xlink="http://www.w3.org/1999/xlink" x="0px" y="0px"
	 viewBox="0 0 1080 1080" style="enable-background:new 0 0 1080 1080;" xml:space="preserve">
<style type="text/css">
	.st0{fill:#30B9DB;}
	.st1{fill:#378BBA;}
	.st2{fill:#222222;}
</style>
<g>
	<g>
		<path class="st0" d="M533.9,535.7l-7.7,80.5c-0.4,4.4,4.1,7.7,8.2,5.8l20.7-9.3c5.8-2.6,9.6-8.4,9.6-14.8v-4.3
			c0-6,4.2-11.3,10-12.7l41.9-9.9c9.4-1.8,11.3-9.3,13.3-15l4-15.1l-69.3,14v-6.6c0-4.6,3.3-8.6,7.8-9.4l65.3-12.5l8.8-33.5
			l-87.4,15.4C545.6,510.8,535.2,522,533.9,535.7z"/>
	</g>
	<path class="st0" d="M506.7,555.1v-6.3c0-4.6-3.3-8.6-7.8-9.4l-65.3-12.8l2.5,9.3c0.8,3.2,3.5,5.7,6.7,6.3L506.7,555.1z"/>
	<path class="st1" d="M397.3,457.3l140.5,21.7V340.9l99.9,30.1c3.4,1,5.4,4.4,4.7,7.9l-16.7,83.5c-0.4,2.1,1.4,4,3.5,3.7l53-7.7
		v14.1l-142.2,22.7l-142.9-22.7V457.3z"/>
	<g>
		<polygon class="st2" points="254.2,738 263.9,738 263.9,709.5 291,709.5 291,700.1 263.9,700.1 263.9,679.4 294.9,679.4 
			294.9,669.9 254.2,669.9 		"/>
		<path class="st2" d="M333.8,667.1l-30,70.9h9.8l7-17.1h25.7L353,738h11.4l-30-70.9H333.8z M324.1,712.5l9.6-23.5l9.2,23.5H324.1z"
			/>
		<polygon class="st2" points="434.2,717.9 384.6,667.8 384.2,667.8 384.2,738 394.1,738 393.9,690.9 443.5,740.4 443.8,740.4 
			443.8,669.9 434,669.9 		"/>
		<polygon class="st2" points="465.6,679.4 483.1,679.4 483.1,738 493,738 493,679.4 511,679.4 511,669.9 465.6,669.9 		"/>
		<path class="st2" d="M585.1,679.5c-3.2-3.2-7-5.8-11.2-7.6c-4.2-1.8-8.7-2.8-13.5-2.8c-4.8,0-9.2,0.9-13.4,2.8
			c-4.2,1.8-7.9,4.4-11.1,7.6c-3.2,3.2-5.7,6.9-7.5,11.1c-1.8,4.2-2.7,8.6-2.7,13.3c0,4.9,0.9,9.4,2.7,13.7c1.8,4.2,4.3,7.9,7.5,11
			c3.2,3.1,6.9,5.6,11.1,7.4c4.2,1.8,8.7,2.7,13.4,2.7c4.8,0,9.3-0.9,13.5-2.7c4.2-1.8,8-4.3,11.2-7.5c3.2-3.2,5.7-6.9,7.6-11.1
			c1.8-4.2,2.7-8.7,2.7-13.5c0-4.7-0.9-9.1-2.7-13.3C590.8,686.5,588.3,682.8,585.1,679.5z M581.9,716.8c-2.2,3.8-5.1,6.9-8.8,9.1
			c-3.7,2.3-7.8,3.4-12.4,3.4c-4.6,0-8.8-1.1-12.6-3.4c-3.8-2.3-6.7-5.3-8.9-9.1c-2.2-3.8-3.3-8-3.3-12.7c0-4.7,1.1-9,3.2-12.8
			c2.2-3.9,5.1-6.9,8.8-9.2c3.7-2.3,7.9-3.4,12.5-3.4c4.6,0,8.7,1.1,12.4,3.4c3.7,2.3,6.7,5.3,8.9,9.2c2.2,3.9,3.3,8.1,3.3,12.8
			S584.1,713,581.9,716.8z"/>
		<polygon class="st2" points="651.7,715.5 618,667.7 617.9,667.7 617.9,738 627.4,738 627.4,697.3 651.5,730.7 651.7,730.7 
			676.3,695.7 676.3,738 686,738 686,667.7 685.9,667.7 		"/>
		<path class="st2" d="M735.7,667.1l-30,70.9h9.8l7-17.1h25.7l6.7,17.1h11.4l-30-70.9H735.7z M726,712.5l9.6-23.5l9.2,23.5H726z"/>
		<path class="st2" d="M823.3,709.1c-1.7-2.6-3.9-4.6-6.5-6.2c-2.6-1.5-5.4-2.8-8.2-3.8c-2.4-0.9-4.8-1.9-7-3
			c-2.2-1.1-4-2.3-5.4-3.8c-1.4-1.4-2.1-3.1-2.1-5.1c0-2.8,1-5,3.1-6.6c2.1-1.6,4.9-2.4,8.5-2.4c2.6,0,5.2,0.4,8,1.3
			c2.8,0.9,5.3,1.9,7.7,3.2l3.7-7.6c-2.6-1.6-5.5-2.9-8.9-4c-3.4-1.1-7.3-1.6-11.8-1.6c-3.9,0.1-7.5,1-10.5,2.5
			c-3.1,1.6-5.5,3.7-7.2,6.4c-1.7,2.7-2.6,5.9-2.6,9.6c0,3,0.6,5.6,1.7,7.7c1.2,2.1,2.7,3.9,4.5,5.3c1.8,1.4,3.9,2.6,6.1,3.6
			c2.2,1,4.4,1.9,6.5,2.7c2.2,0.8,4.2,1.8,6.2,2.8c1.9,1.1,3.5,2.3,4.7,3.9c1.2,1.5,1.8,3.3,1.8,5.4c0,2.6-0.7,4.6-2,6.2
			c-1.3,1.6-3,2.7-5,3.4c-2,0.7-4.1,1.1-6.2,1.1c-2.9,0-5.9-0.6-9.1-1.9c-3.2-1.3-5.9-2.7-8.1-4.4l-4.4,7.8c2.8,1.9,6.2,3.6,10.1,5
			c3.9,1.4,8.1,2.1,12.4,2.1c4.7,0,8.7-0.9,12.1-2.6c3.3-1.7,5.9-4.1,7.8-7c1.8-2.9,2.7-6.2,2.7-9.8
			C825.8,715.1,825,711.7,823.3,709.1z"/>
	</g>
</g>
</svg>
