<?xml version="1.0" encoding="utf-8"?>
<!-- Generator: Adobe Illustrator 26.2.1, SVG Export Plug-In . SVG Version: 6.00 Build 0)  -->
<svg version="1.1" id="Layer_1" xmlns="http://www.w3.org/2000/svg" xmlns:xlink="http://www.w3.org/1999/xlink" x="0px" y="0px"
	 viewBox="0 0 1080 752.1" style="enable-background:new 0 0 1188 827.2;" xml:space="preserve">
<style type="text/css">
	.st0{fill:#FFF;}
	.st1{fill:#FFF;}
	.st2{fill:#FFF;}
</style>
<g>
	<g>
		<path class="st0" d="M0.3,622.6h79.7v17.5H20.3v51.4h54.3v17.7H20.3v41.5h-20V622.6z"/>
		<path class="st0" d="M157.3,621.3h2.3l56.2,129.5H195l-7.3-18.1h-58.6l-7.3,18.1h-19.2L157.3,621.3z M180.5,715.9l-16-40
			c-3.2-7.5-6.4-19-6.4-19s-3,11.5-6.2,19l-16,40H180.5z"/>
		<path class="st0" d="M282.8,675.9c-5.1-5.5-12.1-14.3-12.1-14.3s1.3,10.6,1.3,18.5v70.7h-18.5V621.3h2.6l70.7,75.9
			c4.9,5.3,11.9,14.3,11.9,14.3s-1.3-11.3-1.3-18.5v-70.5H356v129.5h-2.5L282.8,675.9z"/>
		<path class="st0" d="M432.5,640.1h-38.1v-17.5h95.9v17.5h-38.1v110.6h-19.8V640.1z"/>
		<path class="st0" d="M515.4,686.7c0-38.3,29.4-65.8,66.1-65.8c36.6,0,66,27.5,66,65.8c0,38.3-29.4,65.8-66,65.8
			C544.8,752.4,515.4,724.9,515.4,686.7z M627.1,686.7c0-27.3-18.8-47.9-45.6-47.9c-26.8,0-45.8,20.5-45.8,47.9
			c0,27.3,19,47.9,45.8,47.9C608.3,734.5,627.1,714,627.1,686.7z"/>
		<path class="st0" d="M689.5,621.3h2.1l61.2,71.6l60.7-71.6h2.1v129.5h-19v-66.5c0-7.2,0.8-18.5,0.8-18.5s-6.2,9.6-11.5,15.5
			L753.6,720h-2.3l-32.2-38.8c-4.9-5.8-11.3-15.5-11.3-15.5s0.8,11.3,0.8,18.5v66.5h-19V621.3z"/>
		<path class="st0" d="M908.3,621.3h2.3l56.2,129.5H946l-7.3-18.1h-58.6l-7.4,18.1h-19.2L908.3,621.3z M931.5,715.9l-16-40
			c-3.2-7.5-6.4-19-6.4-19s-3,11.5-6.2,19l-16,40H931.5z"/>
		<path class="st0" d="M992.2,725.9l16.4-9c6,10,13.8,17.9,29.4,17.9c13,0,22.2-7,22.2-17.5c0-11.1-7.5-16-21.5-22.2l-8.5-3.8
			c-18.7-8.3-30-17.7-30-37.5c0-19,14.7-32.6,36-32.6c17,0,28.5,6.4,36.2,20.2l-15.6,9.6c-4.9-8.5-10.6-12.4-20.5-12.4
			c-10.2,0-16.6,6.2-16.6,14.9c0,9.6,5.5,13.9,18.5,19.6l8.3,3.8c21.9,9.6,33.5,19.8,33.5,40.3c0,22.4-17.5,35.4-41.6,35.4
			C1014,752.4,999.3,740.4,992.2,725.9z"/>
	</g>
	<g>
		<path class="st1" d="M528.4,367.8l-14.6,152c-0.8,8.4,7.7,14.5,15.4,11l39.1-17.6c11-4.9,18.1-15.9,18.1-27.9v-8.2
			c0-11.4,7.9-21.3,19-24l79.1-18.7c17.7-3.4,21.3-17.5,25.1-28.3l7.5-28.5l-130.8,26.5v-12.5c0-8.7,6.2-16.1,14.7-17.8l123.3-23.7
			l16.7-63.2L576,316.2C550.4,320.7,530.8,341.9,528.4,367.8z"/>
	</g>
	<path class="st1" d="M477,404.3v-11.9c0-8.7-6.1-16.1-14.7-17.8L339,350.4l4.6,17.6c1.6,6.1,6.5,10.7,12.7,12L477,404.3z"/>
	<path class="st2" d="M270.5,219.8l265.2,40.9V0l188.7,56.7c6.4,1.9,10.3,8.4,9,14.9l-31.5,157.7c-0.8,4,2.6,7.6,6.6,7l100.1-14.6
		v26.6l-268.4,42.9l-269.7-42.9V219.8z"/>
</g>
</svg>
