<svg version="1.1" id="Layer_1" xmlns="http://www.w3.org/2000/svg" xmlns:xlink="http://www.w3.org/1999/xlink" width="25" height="25" viewBox="0 0 400 400" xml:space="preserve">
                  <style type="text/css">
                  	.st0{fill:#FFFFFF;}
                  </style>
                  <g>
                  	<g>
                  		<path class="st0" d="M165.4,190.3c-1-4-2.7-4.5-4.3-4.5h-0.5v16.3h-10.2v-41.6h15.2c7.7,0,12,3.5,12,11.2c0,6.1-4,8.6-7.3,9.5v0.2
                  			c2.2,0.8,3.6,1.9,5.1,7.7l3.4,13h-10.6L165.4,190.3z M163.1,177.8c2.2,0,4.2-1.8,4.2-4.5c0-2.9-1.4-4.9-4.4-4.9h-2.8v9.3H163.1z"></path>
                  		<path class="st0" d="M183,160.5h23.3v8.2H193v8h12.6v8.2H193v8.9h14v8.2h-24V160.5z"></path>
                  		<path class="st0" d="M211.8,192.1c1.3,0.8,5,2.5,8.6,2.5c3.9,0,5.2-1.8,5.2-4.5c0-2.7-1.7-3.5-4.6-4.8l-2.2-0.9
                  			c-6.3-2.7-8.2-6.4-8.2-12.3c0-7.9,5.8-12.3,13.8-12.3c2.9,0,6.5,0.3,9.6,1.7l-0.4,8.2c-1.8-1-4.9-2.1-7.8-2.1
                  			c-3.1,0-4.9,1.4-4.9,3.9c0,2.1,1,3.1,4.4,4.8l4.6,2.3c3.4,1.7,6.4,4.3,6.4,10.5c0,9.1-6,13.7-14.9,13.7c-4.6,0-8.2-1.1-10.1-1.6
                  			L211.8,192.1z"></path>
                  		<path class="st0" d="M241.5,160.5h23.3v8.2h-13.3v8h12.6v8.2h-12.6v8.9h14v8.2h-24V160.5z"></path>
                  		<path class="st0" d="M290.4,193.2h-11.2l-2.5,8.8h-9.8l12.6-41.6h11.3l12.1,41.6h-10.6L290.4,193.2z M285.1,168.9H285l-4.1,16.3
                  			h7.5L285.1,168.9z"></path>
                  		<path class="st0" d="M321.1,190.3c-1-4-2.7-4.5-4.3-4.5h-0.6v16.3H306v-41.6h15.2c7.7,0,12,3.5,12,11.2c0,6.1-4,8.6-7.3,9.5v0.2
                  			c2.2,0.8,3.6,1.9,5.1,7.7l3.4,13H324L321.1,190.3z M318.8,177.8c2.2,0,4.2-1.8,4.2-4.5c0-2.9-1.4-4.9-4.4-4.9h-2.8v9.3H318.8z"></path>
                  		<path class="st0" d="M366,201.2c-3.2,1.1-6.5,1.6-9.4,1.6c-11.1,0-19-7.2-19-21.8c0-12.3,6.4-21.2,18.9-21.2c5,0,8.3,1.5,9.2,1.9
                  			l-0.5,9.2c-1.2-0.8-4.2-2.4-7.4-2.4c-6.5,0-9.6,4.6-9.6,12.7c0,7.2,3.6,12.6,10,12.6c3.7,0,6.3-1.6,7.3-2.3L366,201.2z"></path>
                  		<path class="st0" d="M388.8,185.1h-8v16.9h-10.2v-41.6h10.2v16h8v-16H399v41.6h-10.2V185.1z"></path>
                  	</g>
                  	<path class="st0" d="M150.2,224.9L334,265.7c-24.3,49.5-75.1,83.5-134,83.5c-82.4,0-149.2-66.8-149.2-149.2S117.6,50.8,200,50.8
                  		c28.8,0,55.7,8.2,78.5,22.3l26.2-42.3C274.2,11.9,238.4,1,200,1C90.1,1,1,90.1,1,200c0,109.9,89.1,199,199,199
                  		c101.5,0,185.1-76,197.4-174.1H150.2z"></path>
                  </g>
                  </svg>