<?xml version="1.0" standalone="no"?>
<!DOCTYPE svg PUBLIC "-//W3C//DTD SVG 20010904//EN"
 "http://www.w3.org/TR/2001/REC-SVG-20010904/DTD/svg10.dtd">
<svg version="1.0" xmlns="http://www.w3.org/2000/svg"
 width="700.000000pt" height="700.000000pt" viewBox="0 0 700.000000 700.000000"
 preserveAspectRatio="xMidYMid meet">
<metadata>
Created by potrace 1.14, written by Peter Selinger 2001-2017
</metadata>
<g transform="translate(0.000000,700.000000) scale(0.100000,-0.100000)"
fill="#000000" stroke="none">
<path d="M3450 5266 c0 -933 -2 -1696 -3 -1696 -2 0 -48 7 -103 15 -54 9 -115
18 -134 20 -19 3 -60 9 -90 15 -30 5 -73 12 -95 15 -22 3 -51 8 -65 10 -14 2
-72 11 -130 19 -58 9 -116 18 -130 20 -59 10 -167 27 -195 30 -16 3 -75 12
-130 21 -55 9 -113 18 -130 20 -16 3 -91 14 -165 25 -74 12 -151 23 -170 26
-19 3 -60 9 -90 14 -30 5 -68 11 -85 14 -16 2 -61 9 -100 15 -38 6 -88 13
-110 16 -22 3 -47 7 -55 10 -8 2 -37 7 -64 10 -27 3 -88 12 -135 20 -47 8
-106 17 -131 20 -25 3 -99 14 -165 25 -66 10 -138 22 -160 25 -22 3 -67 10
-100 15 -33 5 -78 12 -100 15 -64 10 -96 15 -155 25 -30 5 -75 12 -100 15 -25
3 -56 8 -70 10 -37 6 -209 34 -253 40 l-37 6 2 -187 3 -187 25 -3 c25 -4 254
-40 440 -70 52 -8 109 -17 125 -20 17 -2 55 -9 85 -14 70 -12 108 -17 195 -30
39 -6 108 -17 155 -25 47 -8 103 -17 125 -20 50 -7 93 -14 125 -20 14 -3 45
-8 70 -10 25 -3 52 -8 60 -10 8 -2 35 -7 60 -10 25 -3 52 -7 60 -10 8 -2 35
-7 60 -10 48 -7 58 -8 165 -25 39 -7 84 -14 100 -16 67 -11 282 -45 305 -49
14 -3 45 -8 70 -11 25 -3 54 -8 65 -10 11 -2 52 -9 90 -14 39 -6 77 -13 85
-15 8 -3 35 -7 60 -10 25 -2 56 -7 70 -9 14 -3 43 -7 65 -11 22 -3 65 -10 95
-15 30 -5 73 -12 95 -15 22 -3 51 -8 65 -10 14 -3 39 -7 55 -9 17 -3 86 -14
155 -25 69 -11 141 -22 160 -25 39 -6 78 -13 130 -22 59 -11 119 -12 158 -3
20 4 57 10 82 14 25 3 86 13 135 21 50 8 101 17 115 19 14 2 69 11 123 20 54
9 110 18 125 20 15 2 56 8 92 14 36 6 83 13 105 16 22 4 78 13 124 21 47 8
130 21 185 29 56 8 111 17 122 19 12 3 39 7 60 10 22 4 77 13 124 21 47 8 108
17 135 20 28 4 57 8 65 10 8 3 33 7 55 10 22 4 78 13 125 20 47 8 132 22 190
30 58 9 116 18 130 20 14 2 79 13 145 24 66 11 136 23 155 25 19 3 80 12 135
21 119 20 119 20 315 51 252 40 294 46 315 50 10 2 37 6 60 9 42 6 145 23 183
31 22 4 22 6 22 174 l0 170 -23 0 c-13 0 -48 -4 -78 -9 -30 -6 -76 -13 -104
-16 -27 -3 -59 -8 -70 -10 -11 -2 -40 -7 -65 -10 -25 -3 -58 -7 -75 -10 -63
-10 -91 -15 -125 -19 -19 -3 -100 -15 -180 -26 -80 -11 -163 -23 -185 -26 -88
-12 -111 -15 -125 -19 -8 -2 -42 -7 -75 -11 -33 -3 -62 -7 -65 -9 -3 -2 -33
-7 -65 -10 -33 -4 -62 -8 -65 -8 -23 -5 -68 16 -79 36 -15 28 -12 56 34 272 9
44 19 91 21 105 3 14 11 59 19 100 9 41 17 84 19 95 2 11 32 157 66 325 34
168 63 314 65 325 1 11 35 180 75 375 39 195 74 369 77 385 2 17 9 48 15 70
16 64 12 132 -12 170 -29 47 -63 69 -145 93 -136 40 -278 82 -955 287 -377
114 -698 210 -715 215 -24 6 -650 195 -717 216 -17 5 -18 -80 -18 -1690z"/>
<path d="M6040 3210 c-54 -12 -91 -18 -140 -25 -24 -4 -47 -8 -50 -10 -3 -2
-26 -6 -51 -9 -25 -3 -66 -10 -90 -15 -24 -5 -100 -19 -169 -31 -69 -11 -136
-23 -150 -25 -68 -12 -138 -25 -165 -30 -35 -6 -272 -47 -435 -76 -63 -11
-126 -22 -140 -25 -23 -4 -81 -15 -155 -28 -16 -3 -109 -19 -205 -35 -96 -17
-186 -33 -200 -36 -13 -2 -42 -7 -65 -10 -269 -38 -487 -193 -600 -429 -48
-101 -62 -163 -80 -346 -3 -30 -7 -75 -10 -100 -3 -25 -7 -70 -10 -100 -3 -30
-7 -75 -10 -100 -5 -53 -13 -140 -20 -225 -3 -33 -8 -76 -10 -95 -2 -19 -7
-66 -10 -105 -9 -107 -23 -256 -30 -320 -2 -22 -7 -67 -10 -100 -3 -33 -8 -80
-10 -105 -2 -25 -7 -67 -9 -95 -3 -27 -8 -75 -11 -105 -3 -30 -7 -82 -10 -115
-3 -33 -7 -80 -10 -105 -25 -232 -24 -269 6 -311 25 -35 73 -59 118 -59 16 0
58 13 93 29 35 16 106 48 158 71 134 60 178 79 240 108 30 14 60 27 66 28 26
5 94 56 140 107 67 72 94 145 100 262 8 161 12 193 32 237 26 59 87 122 147
151 41 20 242 73 347 92 15 3 39 10 53 15 14 5 25 7 25 5 0 -2 11 0 26 5 14 6
38 12 53 15 15 3 95 21 177 41 82 19 159 38 170 40 123 24 329 81 368 102 79
43 140 131 191 272 27 78 114 420 106 420 -5 0 -33 -5 -62 -11 -30 -6 -65 -12
-79 -15 -14 -3 -32 -7 -40 -9 -8 -2 -31 -7 -50 -10 -19 -3 -55 -11 -80 -16
-25 -6 -58 -13 -75 -16 -16 -3 -113 -22 -215 -43 -102 -21 -196 -41 -210 -43
-35 -7 -782 -158 -800 -162 -8 -2 -30 -7 -49 -11 l-33 -7 4 119 c4 130 13 157
69 212 46 45 78 57 229 86 74 14 218 41 320 61 102 20 232 45 290 55 111 21
139 26 180 35 36 8 71 14 105 20 30 6 272 53 310 61 11 2 36 7 55 10 84 14
226 46 232 52 6 7 29 88 154 567 30 116 57 218 60 228 6 19 -13 21 -76 7z"/>
<path d="M894 2384 c3 -9 9 -28 12 -42 42 -181 72 -248 133 -292 25 -17 127
-45 238 -66 13 -2 33 -6 46 -8 12 -2 101 -21 197 -40 242 -50 470 -97 500
-102 14 -2 36 -7 50 -10 14 -3 36 -8 50 -10 83 -15 272 -54 310 -64 19 -5 53
-11 75 -15 22 -3 47 -7 55 -10 8 -2 26 -6 40 -9 14 -3 39 -8 55 -11 l31 -7 -1
104 c-1 80 -6 113 -22 148 -21 48 -78 105 -122 122 -21 8 -434 93 -542 112
-53 9 -246 47 -284 56 -22 5 -137 28 -255 50 -118 23 -244 47 -280 55 -36 8
-81 17 -100 20 -19 3 -46 8 -60 10 -137 28 -133 27 -126 9z"/>
</g>
</svg>
