<?xml version="1.0" encoding="utf-8"?>
<!-- Generator: Adobe Illustrator 26.3.1, SVG Export Plug-In . SVG Version: 6.00 Build 0)  -->
<svg version="1.1" id="Layer_1" xmlns="http://www.w3.org/2000/svg" xmlns:xlink="http://www.w3.org/1999/xlink" x="0px" y="0px"
	 viewBox="0 0 1080 1080" style="enable-background:new 0 0 1080 1080;" xml:space="preserve">
<style type="text/css">
	.st0{fill:#949494;}
	.st1{fill:#777777;}
	.st2{fill:#212222;}
</style>
<g>
	<g>
		<path class="st0" d="M533.9,535.7l-7.7,80.5c-0.4,4.4,4.1,7.7,8.2,5.8l20.7-9.3c5.8-2.6,9.6-8.4,9.6-14.8v-4.3
			c0-6,4.2-11.3,10-12.7l41.9-9.9c9.4-1.8,11.3-9.3,13.3-15l4-15.1l-69.3,14v-6.6c0-4.6,3.3-8.6,7.8-9.4l65.3-12.5l8.8-33.5
			l-87.4,15.4C545.6,510.8,535.2,522,533.9,535.7z"/>
	</g>
	<path class="st0" d="M506.7,555.1v-6.3c0-4.6-3.3-8.6-7.8-9.4l-65.3-12.8l2.5,9.3c0.8,3.2,3.5,5.7,6.7,6.3L506.7,555.1z"/>
	<path class="st1" d="M397.3,457.3l140.5,21.7V340.9l99.9,30.1c3.4,1,5.4,4.4,4.7,7.9l-16.7,83.5c-0.4,2.1,1.4,4,3.5,3.7l53-7.7
		v14.1l-142.2,22.7l-142.9-22.7V457.3z"/>
	<g>
		<polygon class="st2" points="254.3,739 264.1,739 264.1,710.4 291.2,710.4 291.2,701 264.1,701 264.1,680.3 295.1,680.3 
			295.1,670.8 254.3,670.8 		"/>
		<path class="st2" d="M334,668L304,739h9.8l7-17.1h25.7l6.7,17.1h11.4l-30-70.9H334z M324.3,713.4l9.6-23.5l9.2,23.5H324.3z"/>
		<polygon class="st2" points="434.3,718.8 384.7,668.7 384.4,668.7 384.4,739 394.2,739 394,691.8 443.6,741.3 443.9,741.3 
			443.9,670.8 434.2,670.8 		"/>
		<polygon class="st2" points="465.8,680.3 483.3,680.3 483.3,739 493.1,739 493.1,680.3 511.2,680.3 511.2,670.8 465.8,670.8 		"/>
		<path class="st2" d="M585.3,680.5c-3.2-3.2-7-5.8-11.2-7.6c-4.2-1.8-8.7-2.8-13.5-2.8c-4.8,0-9.2,0.9-13.4,2.8
			c-4.2,1.8-7.9,4.4-11.1,7.6c-3.2,3.2-5.7,6.9-7.5,11.1c-1.8,4.2-2.7,8.6-2.7,13.3c0,4.9,0.9,9.4,2.7,13.7c1.8,4.2,4.3,7.9,7.5,11
			c3.2,3.1,6.9,5.6,11.1,7.4c4.2,1.8,8.7,2.7,13.4,2.7c4.8,0,9.3-0.9,13.5-2.7c4.2-1.8,8-4.3,11.2-7.5c3.2-3.2,5.7-6.9,7.6-11.1
			c1.8-4.2,2.7-8.7,2.7-13.5c0-4.7-0.9-9.1-2.7-13.3C591,687.4,588.5,683.7,585.3,680.5z M582.1,717.7c-2.2,3.8-5.1,6.9-8.8,9.1
			c-3.7,2.3-7.8,3.4-12.4,3.4c-4.6,0-8.8-1.1-12.6-3.4c-3.8-2.3-6.7-5.3-8.9-9.1c-2.2-3.8-3.3-8-3.3-12.7c0-4.7,1.1-9,3.2-12.8
			c2.2-3.9,5.1-6.9,8.8-9.2c3.7-2.3,7.9-3.4,12.5-3.4c4.6,0,8.7,1.1,12.4,3.4c3.7,2.3,6.7,5.3,8.9,9.2c2.2,3.9,3.3,8.1,3.3,12.8
			S584.3,713.9,582.1,717.7z"/>
		<polygon class="st2" points="651.9,716.4 618.2,668.6 618.1,668.6 618.1,739 627.6,739 627.6,698.2 651.6,731.6 651.8,731.6 
			676.4,696.6 676.4,739 686.2,739 686.2,668.6 686,668.6 		"/>
		<path class="st2" d="M735.9,668l-30,70.9h9.8l7-17.1h25.7l6.7,17.1h11.4l-30-70.9H735.9z M726.2,713.4l9.6-23.5l9.2,23.5H726.2z"
			/>
		<path class="st2" d="M823.5,710c-1.7-2.6-3.9-4.6-6.5-6.2c-2.6-1.5-5.4-2.8-8.2-3.8c-2.4-0.9-4.8-1.9-7-3c-2.2-1.1-4-2.3-5.4-3.8
			c-1.4-1.4-2.1-3.1-2.1-5.1c0-2.8,1-5,3.1-6.6c2.1-1.6,4.9-2.4,8.5-2.4c2.6,0,5.2,0.4,8,1.3c2.8,0.9,5.3,1.9,7.7,3.2l3.7-7.6
			c-2.6-1.6-5.5-2.9-8.9-4c-3.4-1.1-7.3-1.6-11.8-1.6c-3.9,0.1-7.5,1-10.5,2.5c-3.1,1.6-5.5,3.7-7.2,6.4c-1.7,2.7-2.6,5.9-2.6,9.6
			c0,3,0.6,5.6,1.7,7.7c1.2,2.1,2.7,3.9,4.5,5.3c1.8,1.4,3.9,2.6,6.1,3.6c2.2,1,4.4,1.9,6.5,2.7c2.2,0.8,4.2,1.8,6.2,2.8
			c1.9,1.1,3.5,2.3,4.7,3.9c1.2,1.5,1.8,3.3,1.8,5.4c0,2.6-0.7,4.6-2,6.2c-1.3,1.6-3,2.7-5,3.4c-2,0.7-4.1,1.1-6.2,1.1
			c-2.9,0-5.9-0.6-9.1-1.9c-3.2-1.3-5.9-2.7-8.1-4.4l-4.4,7.8c2.8,1.9,6.2,3.6,10.1,5c3.9,1.4,8.1,2.1,12.4,2.1
			c4.7,0,8.7-0.9,12.1-2.6c3.3-1.7,5.9-4.1,7.8-7c1.8-2.9,2.7-6.2,2.7-9.8C826,716,825.2,712.6,823.5,710z"/>
	</g>
</g>
</svg>
